#N canvas 1031 542 432 379 10;
#X obj 162 243 spigot;
#X obj 81 197 tgl 15 0 empty empty empty 17 7 0 10 -262144 -1 -1 0
1;
#X floatatom 96 143 5 0 0 0 - - -, f 5;
#X obj 243 142 i;
#X obj 276 143 + 1;
#X floatatom 242 165 5 0 0 0 - - -, f 5;
#X floatatom 242 213 5 0 0 0 - - -, f 5;
#X obj 242 190 % 1000;
#X text 108 167 input threshold;
#X obj 74 165 > 32;
#X obj 82 13 inlet;
#X text 125 12 value from serial port;
#X obj 243 117 bng 15 250 50 0 empty empty empty 17 7 0 10 -262144
-1 -1;
#X text 72 85 WRITE BINARY:;
#X text 238 91 LIST ITERATOR:;
#X obj 241 292 outlet;
#X obj 94 289 outlet, f 7;
#X text 237 316 list index;
#X text 86 309 binary out;
#X obj 17 291 outlet, f 7;
#X text 9 311 direct out;
#X text 97 199 stream of 0 and 1;
#X obj 164 291 outlet, f 7;
#X text 156 311 value out;
#X obj 82 58 t f f;
#X obj 115 117 r globalThreshold;
#X connect 0 0 22 0;
#X connect 1 0 16 0;
#X connect 2 0 9 1;
#X connect 3 0 4 0;
#X connect 3 0 5 0;
#X connect 4 0 3 1;
#X connect 5 0 7 0;
#X connect 6 0 15 0;
#X connect 7 0 6 0;
#X connect 9 0 0 1;
#X connect 9 0 1 0;
#X connect 10 0 12 0;
#X connect 10 0 19 0;
#X connect 10 0 24 0;
#X connect 12 0 3 0;
#X connect 24 0 0 0;
#X connect 24 1 9 0;
#X connect 25 0 2 0;
