#N canvas 960 61 960 994 10;
#X obj 30 67 tgl 15 0 empty empty empty 17 7 0 10 #fcfcfc #000000 #000000
0 1;
#X obj 30 90 metro 33.3333;
#X obj 30 115 i;
#X obj 60 116 + 1;
#N canvas 0 0 450 300 (subpatch) 0;
#X array snare 6.35573e+06 float 4 black black;
#X coords 0 1 6.35573e+06 -1 400 140 1;
#X restore 430 280 graph;
#X obj 240 375 soundfiler;
#X floatatom 240 400 12 0 0 0 - - -, f 12;
#X msg 100 240 open \$1;
#X obj 100 330 readsf~;
#X obj 40 270 delay 50;
#X msg 40 295 start;
#X obj 120 630 tabwrite snare-hits;
#X obj 190 500 r index;
#X text 120 90 30fps;
#X obj 30 -90 bng 15 250 50 0 empty empty empty 17 7 0 10 #fcfcfc #000000
#000000;
#X obj 30 -62 s start;
#X obj 90 -90 bng 15 250 50 0 empty empty empty 17 7 0 10 #fcfcfc #000000
#000000;
#X obj 90 -62 s stop;
#X obj 30 10 r start;
#X obj 90 10 r stop;
#X msg 30 35 1;
#X msg 90 35 0;
#X floatatom 30 140 5 0 0 0 - - -, f 5;
#X obj 30 164 s index;
#X msg -10 70 0;
#X obj 170 160 r start;
#X obj 170 185 bng 15 250 50 0 empty empty empty 17 7 0 10 #fcfcfc
#000000 #000000;
#X obj 20 370 dac~ 1 2;
#X msg 190 670 \; snare-hits write snare-hits.txt;
#X obj 110 265 print file;
#X msg 240 350 read -resize \$1 snare;
#N canvas 0 0 450 300 (subpatch) 0;
#X array snare-hits 211857 float 6 black black;
#X coords 0 1 211857 0 400 140 1;
#X restore 430 430 graph;
#X obj -10 270 r stop;
#X msg -10 295 stop;
#X obj 100 355 env~;
#X obj 40 250 bng 15 250 50 0 empty empty empty 17 7 0 10 #fcfcfc #000000
#000000;
#X floatatom 100 380 5 0 0 0 - - -, f 5;
#X obj 30 401 - 100;
#X floatatom 30 426 5 0 0 0 - - -, f 5;
#X obj 30 450 vu 15 120 empty empty -1 -8 0 10 #404040 #000000 1 0
;
#X obj 240 460 array size snare-hits;
#X obj 240 419 / 30;
#X floatatom 240 440 8 0 0 0 - - -, f 8;
#X floatatom 100 431 5 0 0 0 - - -, f 5;
#X obj 100 411 > 80;
#X obj 100 455 == 1;
#X obj 100 480 tgl 15 0 empty empty empty 17 7 0 10 #fcfcfc #000000
#000000 0 1;
#X obj 110 502 spigot;
#X obj 110 547 tgl 15 0 empty empty empty 17 7 0 10 #fcfcfc #000000
#000000 0 1;
#X obj 110 580 f;
#X obj 190 525 bng 15 250 50 0 empty empty empty 17 7 0 10 #fcfcfc
#000000 #000000;
#X floatatom 60 610 5 0 0 0 - - -, f 5;
#X msg 130 530 0;
#X obj 150 360 s stop;
#X text 130 410 threshold;
#X text 270 420 framerate;
#X text 320 400 total samples;
#X msg 170 210 symbol ../audiofiles/D10_Snare_12.wav;
#X connect 0 0 1 0;
#X connect 1 0 2 0;
#X connect 2 0 3 0;
#X connect 2 0 22 0;
#X connect 3 0 2 1;
#X connect 5 0 6 0;
#X connect 6 0 41 0;
#X connect 7 0 8 0;
#X connect 7 0 29 0;
#X connect 7 0 35 0;
#X connect 8 0 27 0;
#X connect 8 0 27 1;
#X connect 8 0 34 0;
#X connect 8 1 28 0;
#X connect 8 1 53 0;
#X connect 9 0 10 0;
#X connect 10 0 8 0;
#X connect 12 0 11 1;
#X connect 12 0 50 0;
#X connect 14 0 15 0;
#X connect 16 0 17 0;
#X connect 18 0 20 0;
#X connect 18 0 24 0;
#X connect 19 0 21 0;
#X connect 20 0 0 0;
#X connect 21 0 0 0;
#X connect 22 0 23 0;
#X connect 24 0 2 0;
#X connect 25 0 26 0;
#X connect 26 0 57 0;
#X connect 30 0 5 0;
#X connect 32 0 33 0;
#X connect 33 0 8 0;
#X connect 34 0 36 0;
#X connect 35 0 9 0;
#X connect 36 0 37 0;
#X connect 36 0 44 0;
#X connect 37 0 38 0;
#X connect 38 0 39 0;
#X connect 41 0 42 0;
#X connect 42 0 40 0;
#X connect 43 0 45 0;
#X connect 43 0 47 0;
#X connect 44 0 43 0;
#X connect 45 0 46 0;
#X connect 46 0 47 1;
#X connect 47 0 48 0;
#X connect 48 0 49 1;
#X connect 49 0 11 0;
#X connect 49 0 51 0;
#X connect 50 0 49 0;
#X connect 50 0 52 0;
#X connect 52 0 48 0;
#X connect 57 0 7 0;
#X connect 57 0 30 0;
