#N canvas 344 438 450 371 10;
#X obj 120 75 bp~;
#X obj 220 20 initbang;
#X obj 216 49 f \$1;
#X obj 252 49 f \$2;
#X obj 120 100 env~;
#X obj 120 125 dbtorms;
#X obj 120 150 vsl 15 128 0 0.01 0 0 empty empty empty 0 -9 0 10 #fcfcfc
#000000 #000000 0 1;
#X floatatom 140 150 5 0 0 0 - - -, f 5;
#X obj 70 150 outlet;
#X floatatom 252 74 5 0 0 0 - - -, f 5;
#X floatatom 216 74 5 0 0 0 - - -, f 5;
#X obj 220 285 s udp;
#X symbolatom 220 160 10 0 0 0 - - -, f 10;
#X obj 230 130 bng 15 250 50 0 empty empty empty 17 7 0 10 #fcfcfc
#000000 #000000;
#X msg 220 110 set /bp/\$1;
#X obj 220 210 pack s f;
#X msg 220 260 send \$1 \$2;
#X obj 130 -67 inlet;
#X obj 130 -42 bng 15 250 50 0 empty empty empty 17 7 0 10 #fcfcfc
#000000 #000000;
#X obj 130 -19 delay 50;
#X msg 130 6 start;
#X obj 120 31 readsf~;
#X obj 60 110 dac~;
#X obj 40 -10 r stop;
#X obj 150 190 r udpTick;
#X connect 0 0 4 0;
#X connect 0 0 22 0;
#X connect 0 0 22 1;
#X connect 1 0 2 0;
#X connect 1 0 3 0;
#X connect 2 0 0 1;
#X connect 2 0 10 0;
#X connect 3 0 0 2;
#X connect 3 0 9 0;
#X connect 4 0 5 0;
#X connect 5 0 6 0;
#X connect 5 0 7 0;
#X connect 5 0 8 0;
#X connect 7 0 15 1;
#X connect 10 0 14 0;
#X connect 12 0 15 0;
#X connect 13 0 12 0;
#X connect 14 0 12 0;
#X connect 14 0 13 0;
#X connect 15 0 16 0;
#X connect 16 0 11 0;
#X connect 17 0 18 0;
#X connect 17 0 21 0;
#X connect 18 0 19 0;
#X connect 19 0 20 0;
#X connect 20 0 21 0;
#X connect 21 0 0 0;
#X connect 23 0 21 0;
#X connect 24 0 15 0;
