#N canvas 688 1517 450 300 12;
#X obj 20 -190 import mrpeach;
#X msg 20 -130 connect localhost 9001;
#X msg 100 -100 disconnect;
#X floatatom 100 -70 5 0 0 0 - - -, f 5;
#X msg 100 -40 send /test \$1;
#X obj 100 -11 packOSC;
#X obj 20 30 udpsend;
#X obj 236 -37 r udp;
#X obj 20 59 print udp;
#X obj 20 -160 initbang;
#X obj 236 -8 print udp;
#X obj 90 -160 r start;
#X connect 1 0 6 0;
#X connect 2 0 6 0;
#X connect 3 0 4 0;
#X connect 4 0 5 0;
#X connect 5 0 6 0;
#X connect 6 0 8 0;
#X connect 7 0 5 0;
#X connect 7 0 10 0;
#X connect 9 0 1 0;
#X connect 11 0 1 0;
