#N canvas 960 37 960 994 10;
#X obj 16 -38 bng 15 250 50 0 empty empty empty 17 7 0 10 #fcfcfc #000000
#000000;
#X msg 16 -15 start;
#X obj 16 10 s start;
#X obj 76 -38 bng 15 250 50 0 empty empty empty 17 7 0 10 #fcfcfc #000000
#000000;
#X msg 76 -15 stop;
#X obj 76 10 s stop;
#X obj 19 116 r start;
#X obj 19 141 bng 15 250 50 0 empty empty empty 17 7 0 10 #fcfcfc #000000
#000000;
#X obj 70 240 tgl 15 0 empty empty empty 17 7 0 10 #fcfcfc #000000
#000000 0 1;
#X obj 19 116 r start;
#X obj 19 141 bng 15 250 50 0 empty empty empty 17 7 0 10 #fcfcfc #000000
#000000;
#X obj 247 115 r start;
#X obj 247 140 bng 15 250 50 0 empty empty empty 17 7 0 10 #fcfcfc
#000000 #000000;
#X obj 20 190 sound-env-to-toggle;
#X text 16 93 KICK;
#X text 244 92 SNARE;
#X obj 140 -40 osc_udp_send;
#X obj 20 240 spigot;
#X obj 20 265 s udp;
#X msg 20 215 send /kick;
#X obj 300 240 tgl 15 0 empty empty empty 17 7 0 10 #fcfcfc #000000
#000000 0 1;
#X obj 250 190 sound-env-to-toggle;
#X obj 250 240 spigot;
#X obj 250 265 s udp;
#X obj 470 110 r start;
#X obj 470 135 bng 15 250 50 0 empty empty empty 17 7 0 10 #fcfcfc
#000000 #000000;
#X text 467 87 BASS;
#X obj 490 210 vsl 15 128 0 0.01 0 0 empty empty empty 0 -9 0 10 #fcfcfc
#000000 #000000 0 1;
#X obj 240 -15 tgl 15 0 empty empty empty 17 7 0 10 #fcfcfc #000000
#000000 0 1;
#X obj 240 -70 r start;
#X obj 290 -70 r stop;
#X msg 240 -45 1;
#X msg 290 -45 0;
#X msg 250 215 send /snare;
#X obj 520 240 vsl 15 128 0 0.01 0 0 empty empty empty 0 -9 0 10 #fcfcfc
#000000 #000000 0 1;
#X obj 490 190 bandpass-to-toggle 90 90;
#X obj 550 270 vsl 15 128 0 0.01 0 0 empty empty empty 0 -9 0 10 #fcfcfc
#000000 #000000 0 1;
#X obj 240 8 metro 100;
#X text 310 10 when to send messages via UDP;
#X obj 240 30 s udpTick;
#X obj 520 220 bandpass-to-toggle 1250 600;
#X obj 550 250 bandpass-to-toggle 5000 2500;
#X msg 20 170 open audiofiles/D14_Kick_12.wav 454230;
#X msg 250 160 open audiofiles/D10_Snare_12.wav 454230;
#X msg 470 160 open audiofiles/03Bass_LH500_Direct_11.wav 454230;
#X obj 425 378 readsf~;
#X obj 428 436 dac~;
#X obj 323 355 r stop;
#X msg 380 343 start;
#X obj 380 320 delay 50;
#X obj 393 296 bng 15 250 50 0 empty empty empty 17 7 0 10 #fcfcfc
#000000 #000000;
#X connect 0 0 1 0;
#X connect 1 0 2 0;
#X connect 3 0 4 0;
#X connect 4 0 5 0;
#X connect 6 0 7 0;
#X connect 8 0 17 1;
#X connect 9 0 10 0;
#X connect 10 0 42 0;
#X connect 11 0 12 0;
#X connect 12 0 43 0;
#X connect 13 0 8 0;
#X connect 13 0 19 0;
#X connect 17 0 18 0;
#X connect 19 0 17 0;
#X connect 20 0 22 1;
#X connect 21 0 20 0;
#X connect 21 0 33 0;
#X connect 22 0 23 0;
#X connect 24 0 25 0;
#X connect 25 0 44 0;
#X connect 28 0 37 0;
#X connect 29 0 31 0;
#X connect 30 0 32 0;
#X connect 31 0 28 0;
#X connect 32 0 28 0;
#X connect 33 0 22 0;
#X connect 35 0 27 0;
#X connect 37 0 39 0;
#X connect 40 0 34 0;
#X connect 41 0 36 0;
#X connect 42 0 13 0;
#X connect 43 0 21 0;
#X connect 44 0 35 0;
#X connect 44 0 40 0;
#X connect 44 0 41 0;
#X connect 44 0 50 0;
#X connect 44 0 45 0;
#X connect 45 0 46 0;
#X connect 45 0 46 1;
#X connect 47 0 45 0;
#X connect 48 0 45 0;
#X connect 49 0 48 0;
#X connect 50 0 49 0;
