#N canvas 167 502 340 465 10;
#X obj 164 129 readsf~;
#X obj 167 187 dac~;
#X obj 117 206 env~;
#X obj 117 231 - 100;
#X obj 117 256 vu 15 120 empty empty -1 -8 0 10 #404040 #000000 1 0
;
#X floatatom 53 226 5 0 0 0 - - -, f 5;
#X obj 53 275 tgl 15 0 empty empty empty 17 7 0 10 #fcfcfc #000000
#000000 0 1;
#X obj 62 106 r stop;
#X obj 53 298 outlet;
#X msg 119 94 start;
#X obj 119 71 delay 50;
#X obj 132 47 bng 15 250 50 0 empty empty empty 17 7 0 10 #fcfcfc #000000
#000000;
#X obj 178 42 inlet;
#X obj 53 250 > 80;
#X msg 224 157 stop;
#X obj 224 182 s stop;
#X connect 0 0 2 0;
#X connect 0 0 1 0;
#X connect 0 0 1 1;
#X connect 0 1 14 0;
#X connect 2 0 3 0;
#X connect 2 0 5 0;
#X connect 3 0 4 0;
#X connect 5 0 13 0;
#X connect 6 0 8 0;
#X connect 7 0 0 0;
#X connect 9 0 0 0;
#X connect 10 0 9 0;
#X connect 11 0 10 0;
#X connect 12 0 11 0;
#X connect 12 0 0 0;
#X connect 13 0 6 0;
#X connect 14 0 15 0;
